<svg width="1443" height="581" viewBox="0 0 1443 581" fill="none" xmlns="http://www.w3.org/2000/svg">
<rect width="1443" height="581" fill="#040B0E"/>
<path d="M230.323 129.994L231.783 123.476C232.002 122.5 232.978 121.853 233.962 122.031L240.535 123.221L246.215 119.453C247.066 118.889 248.195 119.093 248.737 119.91L252.352 125.36L258.925 126.551C259.909 126.729 260.53 127.665 260.312 128.642L258.852 135.16L262.467 140.61C263.008 141.427 262.758 142.546 261.907 143.111L256.227 146.878L254.767 153.396C254.548 154.373 253.572 155.02 252.588 154.842L246.015 153.652L240.335 157.419C239.484 157.984 238.355 157.779 237.813 156.963L234.198 151.512L227.625 150.322C226.64 150.144 226.019 149.208 226.238 148.231L227.698 141.713L224.083 136.262C223.541 135.446 223.792 134.326 224.643 133.762L230.323 129.994ZM228.145 135.697L231.592 140.894L230.2 147.109L236.467 148.243L239.914 153.44L245.33 149.848L251.597 150.982L252.989 144.768L258.404 141.176L254.957 135.979L256.349 129.764L250.083 128.629L246.636 123.433L241.22 127.025L234.953 125.89L233.561 132.105L228.145 135.697ZM247.198 144.351C243.794 146.608 239.278 145.791 237.111 142.524C234.945 139.258 235.948 134.78 239.352 132.522C242.756 130.264 247.272 131.082 249.438 134.348C251.605 137.614 250.602 142.093 247.198 144.351ZM245.236 141.393C246.938 140.265 247.44 138.025 246.357 136.392C245.273 134.759 243.015 134.35 241.314 135.479C239.612 136.608 239.11 138.847 240.193 140.48C241.277 142.114 243.534 142.522 245.236 141.393Z" fill="white"/>
<path d="M257.84 212.482L300.759 184.014C304.011 181.857 306.105 178.242 306.579 173.964C307.053 169.686 305.869 165.096 303.287 161.203L264.347 102.496C261.765 98.6036 257.997 95.7274 253.872 94.5003C249.747 93.2732 245.602 93.7958 242.35 95.9529L156.511 152.889C153.258 155.046 151.165 158.661 150.691 162.939C150.217 167.217 151.401 171.807 153.983 175.699L192.923 234.406C195.504 238.299 199.273 241.175 203.398 242.402C207.523 243.629 211.668 243.107 214.92 240.95L257.84 212.482ZM257.84 212.482L277.31 241.835M277.31 241.835L301.835 225.568M277.31 241.835L252.784 258.103" stroke="white" stroke-width="2" stroke-linecap="round" stroke-linejoin="round"/>
<path d="M190.374 173.269C190.062 172.8 189.966 172.215 190.105 171.644C190.245 171.073 190.61 170.563 191.119 170.225L206.474 160.04C206.983 159.703 207.595 159.566 208.175 159.659C208.755 159.752 209.256 160.069 209.568 160.538C209.879 161.008 209.976 161.593 209.836 162.163C209.696 162.734 209.332 163.245 208.823 163.582L193.468 173.767C192.959 174.105 192.347 174.242 191.767 174.149C191.186 174.055 190.685 173.739 190.374 173.269ZM196.992 179.08C196.483 179.418 196.118 179.928 195.979 180.499C195.839 181.07 195.936 181.654 196.247 182.124C196.559 182.594 197.06 182.91 197.64 183.003C198.22 183.097 198.832 182.96 199.341 182.622L214.696 172.437C215.205 172.1 215.57 171.589 215.709 171.018C215.849 170.447 215.752 169.863 215.441 169.393C215.129 168.923 214.628 168.607 214.048 168.514C213.468 168.42 212.856 168.558 212.347 168.895L196.992 179.08ZM202.12 190.979C201.809 190.509 201.712 189.925 201.852 189.354C201.992 188.783 202.356 188.272 202.865 187.935L208.623 184.116C209.132 183.778 209.744 183.641 210.324 183.734C210.905 183.827 211.406 184.144 211.717 184.613C212.029 185.083 212.125 185.668 211.986 186.239C211.846 186.809 211.482 187.32 210.973 187.657L205.214 191.477C204.705 191.814 204.093 191.952 203.513 191.858C202.933 191.765 202.432 191.449 202.12 190.979ZM182.896 157.829C182.584 157.359 182.083 157.043 181.503 156.949C180.923 156.856 180.311 156.993 179.802 157.331C179.293 157.668 178.928 158.179 178.789 158.75C178.649 159.32 178.746 159.905 179.057 160.375L180.232 162.146L178.313 163.419C176.785 164.432 175.692 165.963 175.273 167.676C174.854 169.388 175.144 171.142 176.078 172.551L197.222 204.428C198.157 205.837 199.66 206.786 201.4 207.066C203.141 207.346 204.977 206.935 206.504 205.922L224.205 194.181C225.645 193.226 226.703 191.807 227.17 190.205L231.195 176.366C231.454 175.477 231.522 174.56 231.397 173.673C231.271 172.785 230.953 171.946 230.465 171.209L214.466 147.089C213.531 145.68 212.028 144.731 210.288 144.451C208.547 144.171 206.711 144.583 205.184 145.595L203.264 146.869L202.09 145.098C201.778 144.628 201.277 144.312 200.697 144.218C200.117 144.125 199.505 144.262 198.996 144.6C198.487 144.937 198.122 145.448 197.983 146.019C197.843 146.59 197.94 147.174 198.251 147.644L199.426 149.415L193.668 153.234L192.493 151.463C192.181 150.993 191.68 150.677 191.1 150.584C190.52 150.49 189.908 150.628 189.399 150.965C188.89 151.303 188.525 151.813 188.386 152.384C188.246 152.955 188.343 153.54 188.654 154.009L189.829 155.78L184.071 159.6L182.896 157.829ZM180.662 166.961L207.533 149.137C208.042 148.8 208.654 148.662 209.234 148.756C209.815 148.849 210.316 149.166 210.627 149.635L225.898 172.658L218.22 177.75C216.947 178.594 216.036 179.87 215.687 181.297C215.338 182.725 215.579 184.186 216.358 185.36L220.47 191.559L204.155 202.38C203.646 202.718 203.034 202.855 202.454 202.761C201.873 202.668 201.372 202.352 201.061 201.882L179.917 170.005C179.606 169.535 179.509 168.951 179.649 168.38C179.788 167.809 180.153 167.298 180.662 166.961ZM223.351 187.569L220.197 182.814C220.041 182.579 219.993 182.287 220.063 182.001C220.133 181.716 220.315 181.461 220.569 181.292L226.28 177.505L223.351 187.569Z" fill="white"/>
<line x1="244.252" y1="176.369" x2="277.841" y2="154.09" stroke="white" stroke-width="2"/>
<line x1="250.359" y1="185.578" x2="283.949" y2="163.299" stroke="white" stroke-width="2"/>
<line x1="210.883" y1="225.023" x2="290.057" y2="172.508" stroke="white" stroke-width="2"/>
<path d="M1204.4 352.19L1215.92 346.647C1218.15 345.573 1209.11 332.31 1209.82 329.761C1210.54 327.213 1234.51 317.883 1233.79 316.386L1219.29 286.258C1218.07 283.727 1216.02 281.726 1213.58 280.695C1211.14 279.664 1208.52 279.688 1206.29 280.761L1147.41 309.093C1145.18 310.167 1143.52 312.202 1142.81 314.751C1142.09 317.3 1142.37 320.153 1143.59 322.685L1161.96 360.859C1163.18 363.391 1165.24 365.392 1167.67 366.422C1170.11 367.453 1172.74 367.429 1174.97 366.356L1204.4 352.19ZM1204.4 352.19L1213.59 371.277M1213.59 371.277L1225.11 365.734M1213.59 371.277L1196.77 379.372" stroke="white" stroke-width="2" stroke-linecap="round" stroke-linejoin="round"/>
<path d="M1177.33 342.391L1183.92 339.224C1184.13 339.119 1184.31 338.939 1184.39 338.725C1184.48 338.51 1184.47 338.278 1184.38 338.079C1184.28 337.881 1184.11 337.732 1183.88 337.666C1183.66 337.6 1183.41 337.622 1183.2 337.727L1176.61 340.894C1176.4 340.999 1176.22 341.179 1176.14 341.394C1176.05 341.608 1176.06 341.84 1176.15 342.039C1176.25 342.237 1176.43 342.386 1176.65 342.452C1176.87 342.518 1177.12 342.496 1177.33 342.391Z" fill="white"/>
<path d="M1239.55 362.472L1251.4 356.771C1251.79 356.582 1252.13 356.321 1252.34 356.047C1252.55 355.773 1252.61 355.508 1252.52 355.309C1252.42 355.111 1252.17 354.996 1251.83 354.989C1251.48 354.982 1251.07 355.085 1250.68 355.274L1238.83 360.975C1238.44 361.164 1238.1 361.424 1237.89 361.698C1237.68 361.972 1237.61 362.238 1237.71 362.436C1237.8 362.635 1238.05 362.75 1238.4 362.757C1238.74 362.764 1239.16 362.661 1239.55 362.472Z" fill="white"/>
<path d="M1190.57 341.562L1175.01 349.048C1173.95 349.489 1172.78 349.529 1171.75 349.16C1170.72 348.792 1169.92 348.043 1169.52 347.079L1158.81 324.811C1158.3 323.897 1158.22 322.804 1158.57 321.771C1158.92 320.738 1159.69 319.849 1160.69 319.296L1176.25 311.809C1177.31 311.368 1178.48 311.328 1179.51 311.697C1180.53 312.066 1181.33 312.814 1181.73 313.779L1192.45 336.046C1192.95 336.961 1193.04 338.053 1192.69 339.086C1192.33 340.119 1191.57 341.009 1190.57 341.562ZM1161.41 320.793C1160.84 321.136 1160.43 321.667 1160.25 322.27C1160.07 322.873 1160.14 323.501 1160.45 324.02L1171.17 346.287C1171.38 346.854 1171.82 347.304 1172.41 347.54C1172.99 347.776 1173.67 347.78 1174.29 347.551L1189.85 340.065C1190.41 339.721 1190.83 339.191 1191.01 338.587C1191.19 337.984 1191.12 337.356 1190.8 336.838L1180.09 314.571C1179.88 314.004 1179.43 313.554 1178.85 313.317C1178.27 313.081 1177.59 313.077 1176.97 313.306L1161.41 320.793Z" fill="white"/>
<path d="M1261.91 360.93L1236.24 373.284C1234.49 374.013 1232.57 374.097 1230.89 373.516C1229.2 372.936 1227.9 371.738 1227.26 370.183L1210.01 334.33C1209.19 332.858 1209.07 331.092 1209.66 329.416C1210.26 327.739 1211.53 326.288 1213.19 325.378L1238.86 313.024C1240.61 312.294 1242.53 312.211 1244.21 312.791C1245.89 313.372 1247.2 314.57 1247.84 316.124L1265.09 351.978C1265.91 353.449 1266.03 355.216 1265.43 356.892C1264.84 358.569 1263.57 360.02 1261.91 360.93ZM1214.35 327.788C1213.41 328.353 1212.71 329.218 1212.41 330.196C1212.11 331.175 1212.22 332.19 1212.72 333.023L1229.97 368.877C1230.31 369.79 1231.03 370.511 1231.99 370.885C1232.94 371.258 1234.05 371.254 1235.08 370.873L1260.75 358.519C1261.69 357.955 1262.38 357.09 1262.69 356.111C1262.99 355.133 1262.88 354.118 1262.38 353.285L1245.12 317.431C1244.79 316.517 1244.06 315.796 1243.11 315.423C1242.15 315.05 1241.04 315.054 1240.02 315.434L1214.35 327.788Z" fill="white"/>
<path d="M208.094 505.111H229.901M219 439V443.722M248.699 451.448L245.399 454.786M261 481.5H256.333M181.667 481.5H177M192.601 454.786L189.301 451.448M202.499 498.198C199.236 494.895 197.014 490.688 196.115 486.108C195.215 481.528 195.677 476.781 197.443 472.467C199.21 468.153 202.2 464.466 206.037 461.872C209.874 459.278 214.385 457.893 219 457.893C223.615 457.893 228.126 459.278 231.963 461.872C235.8 464.466 238.79 468.153 240.557 472.467C242.323 476.781 242.785 481.528 241.885 486.108C240.986 490.688 238.764 494.895 235.501 498.198L232.944 500.781C231.482 502.261 230.322 504.017 229.531 505.95C228.74 507.884 228.333 509.956 228.333 512.048V514.556C228.333 517.06 227.35 519.463 225.6 521.234C223.849 523.005 221.475 524 219 524C216.525 524 214.151 523.005 212.4 521.234C210.65 519.463 209.667 517.06 209.667 514.556V512.048C209.667 507.822 208.005 503.765 205.056 500.781L202.499 498.198Z" stroke="white" stroke-width="2" stroke-linecap="round" stroke-linejoin="round"/>
<path d="M1086.09 136.111H1107.9M1097 70V74.7222M1126.7 82.4478L1123.4 85.7864M1139 112.5H1134.33M1059.67 112.5H1055M1070.6 85.7864L1067.3 82.4478M1080.5 129.198C1077.24 125.895 1075.01 121.688 1074.11 117.108C1073.21 112.528 1073.68 107.781 1075.44 103.467C1077.21 99.1534 1080.2 95.4662 1084.04 92.872C1087.87 90.2779 1092.39 88.8933 1097 88.8933C1101.61 88.8933 1106.13 90.2779 1109.96 92.872C1113.8 95.4662 1116.79 99.1534 1118.56 103.467C1120.32 107.781 1120.79 112.528 1119.89 117.108C1118.99 121.688 1116.76 125.895 1113.5 129.198L1110.94 131.781C1109.48 133.261 1108.32 135.017 1107.53 136.95C1106.74 138.884 1106.33 140.956 1106.33 143.048V145.556C1106.33 148.06 1105.35 150.463 1103.6 152.234C1101.85 154.005 1099.48 155 1097 155C1094.52 155 1092.15 154.005 1090.4 152.234C1088.65 150.463 1087.67 148.06 1087.67 145.556V143.048C1087.67 138.822 1086.01 134.765 1083.06 131.781L1080.5 129.198Z" stroke="white" stroke-width="2" stroke-linecap="round" stroke-linejoin="round"/>
</svg>
